<mxfile host="app.diagrams.net" modified="2022-09-07T09:25:35.655Z" agent="5.0 (Windows)" etag="tCPXte2j0eKtTBmCTFqx" version="20.2.8" type="github">
  <diagram id="yPxyJZ8AM_hMuL3Unpa9" name="gitflow">
    <mxGraphModel dx="1662" dy="724" grid="1" gridSize="10" guides="1" tooltips="1" connect="1" arrows="1" fold="1" page="1" pageScale="1" pageWidth="1100" pageHeight="850" math="0" shadow="0">
      <root>
        <mxCell id="0" />
        <mxCell id="1" parent="0" />
        <mxCell id="wNirQLLH8MLSw10efOMB-226" style="edgeStyle=orthogonalEdgeStyle;rounded=0;orthogonalLoop=1;jettySize=auto;html=1;exitX=1;exitY=0.5;exitDx=0;exitDy=0;entryX=0;entryY=0.5;entryDx=0;entryDy=0;" edge="1" parent="1" source="wNirQLLH8MLSw10efOMB-177" target="wNirQLLH8MLSw10efOMB-178">
          <mxGeometry relative="1" as="geometry" />
        </mxCell>
        <mxCell id="wNirQLLH8MLSw10efOMB-177" value="Presence/Absence Data" style="text;html=1;strokeColor=#6C8EBF;fillColor=#DAE8FC;align=center;verticalAlign=middle;whiteSpace=wrap;rounded=0;fontColor=#333333;rotation=0;" vertex="1" parent="1">
          <mxGeometry x="327.66" y="350" width="119.97" height="40" as="geometry" />
        </mxCell>
        <mxCell id="wNirQLLH8MLSw10efOMB-267" style="edgeStyle=orthogonalEdgeStyle;rounded=0;orthogonalLoop=1;jettySize=auto;html=1;exitX=0.5;exitY=1;exitDx=0;exitDy=0;entryX=0.5;entryY=0;entryDx=0;entryDy=0;shadow=0;" edge="1" parent="1" source="wNirQLLH8MLSw10efOMB-178" target="wNirQLLH8MLSw10efOMB-251">
          <mxGeometry relative="1" as="geometry" />
        </mxCell>
        <mxCell id="wNirQLLH8MLSw10efOMB-178" value="ETL process&lt;br&gt;&lt;div&gt;(API)&lt;/div&gt;" style="text;html=1;strokeColor=#666666;fillColor=#F5F5F5;align=center;verticalAlign=middle;whiteSpace=wrap;rounded=0;" vertex="1" parent="1">
          <mxGeometry x="480.34" y="350" width="90" height="40" as="geometry" />
        </mxCell>
        <mxCell id="wNirQLLH8MLSw10efOMB-270" style="edgeStyle=orthogonalEdgeStyle;rounded=0;orthogonalLoop=1;jettySize=auto;html=1;exitX=1;exitY=0.5;exitDx=0;exitDy=0;entryX=0;entryY=0.5;entryDx=0;entryDy=0;shadow=0;" edge="1" parent="1" source="wNirQLLH8MLSw10efOMB-179" target="wNirQLLH8MLSw10efOMB-242">
          <mxGeometry relative="1" as="geometry" />
        </mxCell>
        <mxCell id="wNirQLLH8MLSw10efOMB-179" value="ATW Data Warehouse" style="text;html=1;strokeColor=#666666;fillColor=#F5F5F5;align=center;verticalAlign=middle;whiteSpace=wrap;rounded=0;" vertex="1" parent="1">
          <mxGeometry x="610" y="350" width="90" height="40" as="geometry" />
        </mxCell>
        <mxCell id="wNirQLLH8MLSw10efOMB-208" style="edgeStyle=orthogonalEdgeStyle;rounded=0;orthogonalLoop=1;jettySize=auto;html=1;exitX=1;exitY=0.5;exitDx=0;exitDy=0;" edge="1" parent="1" source="wNirQLLH8MLSw10efOMB-181" target="wNirQLLH8MLSw10efOMB-187">
          <mxGeometry relative="1" as="geometry" />
        </mxCell>
        <mxCell id="wNirQLLH8MLSw10efOMB-276" style="edgeStyle=orthogonalEdgeStyle;rounded=0;orthogonalLoop=1;jettySize=auto;html=1;exitX=1;exitY=0.75;exitDx=0;exitDy=0;shadow=0;entryX=1;entryY=0.5;entryDx=0;entryDy=0;" edge="1" parent="1" source="wNirQLLH8MLSw10efOMB-181" target="wNirQLLH8MLSw10efOMB-274">
          <mxGeometry relative="1" as="geometry" />
        </mxCell>
        <mxCell id="wNirQLLH8MLSw10efOMB-181" value="ATW Grid Map System" style="text;html=1;strokeColor=#666666;fillColor=#F5F5F5;align=center;verticalAlign=middle;whiteSpace=wrap;rounded=0;" vertex="1" parent="1">
          <mxGeometry x="740" y="350" width="90" height="40" as="geometry" />
        </mxCell>
        <mxCell id="wNirQLLH8MLSw10efOMB-182" value="Collation" style="text;html=1;strokeColor=#666666;fillColor=#FFFFFF;align=center;verticalAlign=middle;whiteSpace=wrap;rounded=0;fontColor=#333333;" vertex="1" parent="1">
          <mxGeometry x="479.99999999999994" y="280" width="90" height="20" as="geometry" />
        </mxCell>
        <mxCell id="wNirQLLH8MLSw10efOMB-184" value="Integration" style="text;html=1;strokeColor=#666666;fillColor=#FFFFFF;align=center;verticalAlign=middle;whiteSpace=wrap;rounded=0;fontColor=#333333;" vertex="1" parent="1">
          <mxGeometry x="610" y="280" width="90" height="20" as="geometry" />
        </mxCell>
        <mxCell id="wNirQLLH8MLSw10efOMB-185" value="Annotation" style="text;html=1;strokeColor=#666666;fillColor=#FFFFFF;align=center;verticalAlign=middle;whiteSpace=wrap;rounded=0;fontColor=#333333;" vertex="1" parent="1">
          <mxGeometry x="740" y="280" width="90" height="20" as="geometry" />
        </mxCell>
        <mxCell id="wNirQLLH8MLSw10efOMB-281" style="edgeStyle=orthogonalEdgeStyle;rounded=0;orthogonalLoop=1;jettySize=auto;html=1;exitX=1;exitY=0.5;exitDx=0;exitDy=0;entryX=0;entryY=0.5;entryDx=0;entryDy=0;shadow=0;" edge="1" parent="1" source="wNirQLLH8MLSw10efOMB-187" target="wNirQLLH8MLSw10efOMB-197">
          <mxGeometry relative="1" as="geometry" />
        </mxCell>
        <mxCell id="wNirQLLH8MLSw10efOMB-187" value="&lt;div&gt;ATW Map Product Portal&lt;/div&gt;" style="text;html=1;strokeColor=#666666;fillColor=#F5F5F5;align=center;verticalAlign=middle;whiteSpace=wrap;rounded=0;" vertex="1" parent="1">
          <mxGeometry x="870" y="350" width="90" height="40" as="geometry" />
        </mxCell>
        <mxCell id="wNirQLLH8MLSw10efOMB-197" value="Species Atlas Map" style="text;html=1;strokeColor=#B85450;fillColor=#F8CECC;align=center;verticalAlign=middle;whiteSpace=wrap;rounded=0;" vertex="1" parent="1">
          <mxGeometry x="1000.0000000000002" y="350" width="90" height="40" as="geometry" />
        </mxCell>
        <mxCell id="wNirQLLH8MLSw10efOMB-275" style="edgeStyle=orthogonalEdgeStyle;rounded=0;orthogonalLoop=1;jettySize=auto;html=1;exitX=1;exitY=0.5;exitDx=0;exitDy=0;entryX=0;entryY=0.5;entryDx=0;entryDy=0;shadow=0;dashed=1" edge="1" parent="1" source="wNirQLLH8MLSw10efOMB-215" target="wNirQLLH8MLSw10efOMB-274">
          <mxGeometry relative="1" as="geometry" />
        </mxCell>
        <mxCell id="wNirQLLH8MLSw10efOMB-215" value="Distribution Modeling process" style="text;html=1;strokeColor=#9673A6;fillColor=#E1D5E7;align=center;verticalAlign=middle;whiteSpace=wrap;rounded=0;" vertex="1" parent="1">
          <mxGeometry x="610.0000000000001" y="540" width="90" height="60" as="geometry" />
        </mxCell>
        <mxCell id="wNirQLLH8MLSw10efOMB-261" style="edgeStyle=orthogonalEdgeStyle;rounded=0;orthogonalLoop=1;jettySize=auto;html=1;exitX=0.5;exitY=1;exitDx=0;exitDy=0;shadow=0;dashed=1" edge="1" parent="1" source="wNirQLLH8MLSw10efOMB-221" target="wNirQLLH8MLSw10efOMB-259">
          <mxGeometry relative="1" as="geometry" />
        </mxCell>
        <mxCell id="wNirQLLH8MLSw10efOMB-221" value="&lt;div&gt;Presence-only &lt;br&gt;&lt;/div&gt;&lt;div&gt;data&lt;/div&gt;" style="text;html=1;strokeColor=#6C8EBF;fillColor=#DAE8FC;align=center;verticalAlign=middle;whiteSpace=wrap;rounded=0;fontColor=#333333;rotation=0;" vertex="1" parent="1">
          <mxGeometry x="327.66" y="410" width="119.97" height="40" as="geometry" />
        </mxCell>
        <mxCell id="wNirQLLH8MLSw10efOMB-299" style="edgeStyle=orthogonalEdgeStyle;rounded=0;orthogonalLoop=1;jettySize=auto;html=1;exitX=1;exitY=0.25;exitDx=0;exitDy=0;shadow=0;" edge="1" parent="1" source="wNirQLLH8MLSw10efOMB-229" target="wNirQLLH8MLSw10efOMB-291">
          <mxGeometry relative="1" as="geometry" />
        </mxCell>
        <mxCell id="wNirQLLH8MLSw10efOMB-229" value="蒐集第一手調查資料的單位" style="swimlane;strokeColor=#666666;fillColor=#666666;" vertex="1" parent="1">
          <mxGeometry x="10" y="350" width="160.97" height="180" as="geometry" />
        </mxCell>
        <mxCell id="LrrF8SH-wDORo9SXBC3b-177" value="政府單位" style="text;html=1;strokeColor=#82B366;fillColor=#D5E8D4;align=center;verticalAlign=middle;whiteSpace=wrap;rounded=0;" parent="wNirQLLH8MLSw10efOMB-229" vertex="1">
          <mxGeometry x="35.480000000000004" y="30" width="90" height="20" as="geometry" />
        </mxCell>
        <mxCell id="LrrF8SH-wDORo9SXBC3b-178" value="學術機構" style="text;html=1;strokeColor=#82B366;fillColor=#D5E8D4;align=center;verticalAlign=middle;whiteSpace=wrap;rounded=0;" parent="wNirQLLH8MLSw10efOMB-229" vertex="1">
          <mxGeometry x="35.480000000000004" y="60" width="90" height="20" as="geometry" />
        </mxCell>
        <mxCell id="LrrF8SH-wDORo9SXBC3b-181" value="民間組織" style="text;html=1;strokeColor=#82B366;fillColor=#D5E8D4;align=center;verticalAlign=middle;whiteSpace=wrap;rounded=0;fontSize=12;" parent="wNirQLLH8MLSw10efOMB-229" vertex="1">
          <mxGeometry x="35.480000000000004" y="90" width="90" height="20" as="geometry" />
        </mxCell>
        <mxCell id="wNirQLLH8MLSw10efOMB-196" value="公民科學計畫" style="text;html=1;strokeColor=#82B366;fillColor=#D5E8D4;align=center;verticalAlign=middle;whiteSpace=wrap;rounded=0;" vertex="1" parent="wNirQLLH8MLSw10efOMB-229">
          <mxGeometry x="35.480000000000004" y="120" width="90" height="20" as="geometry" />
        </mxCell>
        <mxCell id="wNirQLLH8MLSw10efOMB-262" value="開放資料庫" style="text;html=1;strokeColor=#82B366;fillColor=#D5E8D4;align=center;verticalAlign=middle;whiteSpace=wrap;rounded=0;" vertex="1" parent="wNirQLLH8MLSw10efOMB-229">
          <mxGeometry x="35.480000000000004" y="150" width="90" height="20" as="geometry" />
        </mxCell>
        <mxCell id="wNirQLLH8MLSw10efOMB-271" style="edgeStyle=orthogonalEdgeStyle;rounded=0;orthogonalLoop=1;jettySize=auto;html=1;exitX=0.5;exitY=0;exitDx=0;exitDy=0;shadow=0;" edge="1" parent="1" source="wNirQLLH8MLSw10efOMB-242" target="wNirQLLH8MLSw10efOMB-181">
          <mxGeometry relative="1" as="geometry" />
        </mxCell>
        <mxCell id="wNirQLLH8MLSw10efOMB-242" value="Data Standard&lt;br&gt; - Grid Structure" style="text;html=1;strokeColor=#D79B00;fillColor=#FFE6CC;align=center;verticalAlign=middle;whiteSpace=wrap;rounded=0;" vertex="1" parent="1">
          <mxGeometry x="740" y="430" width="90" height="60" as="geometry" />
        </mxCell>
        <mxCell id="wNirQLLH8MLSw10efOMB-298" style="edgeStyle=orthogonalEdgeStyle;rounded=0;orthogonalLoop=1;jettySize=auto;html=1;exitX=0.5;exitY=1;exitDx=0;exitDy=0;entryX=0.5;entryY=1;entryDx=0;entryDy=0;shadow=0;" edge="1" parent="1" source="wNirQLLH8MLSw10efOMB-244" target="wNirQLLH8MLSw10efOMB-229">
          <mxGeometry relative="1" as="geometry" />
        </mxCell>
        <mxCell id="wNirQLLH8MLSw10efOMB-244" value="Map -&lt;br&gt;Data Gap" style="text;html=1;strokeColor=#B85450;fillColor=#F8CECC;align=center;verticalAlign=middle;whiteSpace=wrap;rounded=0;" vertex="1" parent="1">
          <mxGeometry x="870" y="630" width="90" height="60" as="geometry" />
        </mxCell>
        <mxCell id="wNirQLLH8MLSw10efOMB-268" style="edgeStyle=orthogonalEdgeStyle;rounded=0;orthogonalLoop=1;jettySize=auto;html=1;exitX=1;exitY=0.5;exitDx=0;exitDy=0;entryX=0;entryY=0.5;entryDx=0;entryDy=0;shadow=0;" edge="1" parent="1" source="wNirQLLH8MLSw10efOMB-251" target="wNirQLLH8MLSw10efOMB-266">
          <mxGeometry relative="1" as="geometry" />
        </mxCell>
        <mxCell id="wNirQLLH8MLSw10efOMB-251" value="&lt;div&gt;Data Standard&lt;/div&gt;&lt;div&gt;&amp;nbsp;- Occurrence Status &lt;/div&gt;" style="text;html=1;strokeColor=#D79B00;fillColor=#FFE6CC;align=center;verticalAlign=middle;whiteSpace=wrap;rounded=0;" vertex="1" parent="1">
          <mxGeometry x="479.99999999999994" y="430" width="90" height="60" as="geometry" />
        </mxCell>
        <mxCell id="wNirQLLH8MLSw10efOMB-260" style="edgeStyle=orthogonalEdgeStyle;rounded=0;orthogonalLoop=1;jettySize=auto;html=1;exitX=1;exitY=0.5;exitDx=0;exitDy=0;shadow=0;dashed=1" edge="1" parent="1" source="wNirQLLH8MLSw10efOMB-259" target="wNirQLLH8MLSw10efOMB-215">
          <mxGeometry relative="1" as="geometry" />
        </mxCell>
        <mxCell id="wNirQLLH8MLSw10efOMB-259" value="ETL process&lt;br&gt;&lt;div&gt;(API)&lt;/div&gt;" style="text;html=1;strokeColor=#666666;fillColor=#F5F5F5;align=center;verticalAlign=middle;whiteSpace=wrap;rounded=0;" vertex="1" parent="1">
          <mxGeometry x="342.64" y="550" width="90" height="40" as="geometry" />
        </mxCell>
        <mxCell id="wNirQLLH8MLSw10efOMB-269" style="edgeStyle=orthogonalEdgeStyle;rounded=0;orthogonalLoop=1;jettySize=auto;html=1;exitX=0.5;exitY=0;exitDx=0;exitDy=0;entryX=0.5;entryY=1;entryDx=0;entryDy=0;shadow=0;" edge="1" parent="1" source="wNirQLLH8MLSw10efOMB-266" target="wNirQLLH8MLSw10efOMB-179">
          <mxGeometry relative="1" as="geometry" />
        </mxCell>
        <mxCell id="wNirQLLH8MLSw10efOMB-266" value="&lt;div&gt;Data Standard&lt;/div&gt;&lt;div&gt;&amp;nbsp;- Survey Effort&lt;br&gt;&lt;/div&gt;" style="text;html=1;strokeColor=#D79B00;fillColor=#FFE6CC;align=center;verticalAlign=middle;whiteSpace=wrap;rounded=0;" vertex="1" parent="1">
          <mxGeometry x="610" y="430" width="90" height="60" as="geometry" />
        </mxCell>
        <mxCell id="wNirQLLH8MLSw10efOMB-279" style="edgeStyle=orthogonalEdgeStyle;rounded=0;orthogonalLoop=1;jettySize=auto;html=1;exitX=0.5;exitY=1;exitDx=0;exitDy=0;entryX=0.5;entryY=0;entryDx=0;entryDy=0;shadow=0;" edge="1" parent="1" source="wNirQLLH8MLSw10efOMB-274" target="wNirQLLH8MLSw10efOMB-278">
          <mxGeometry relative="1" as="geometry" />
        </mxCell>
        <mxCell id="wNirQLLH8MLSw10efOMB-274" value="Map&lt;br&gt;- Hotspot" style="text;html=1;strokeColor=#D79B00;fillColor=#FFE6CC;align=center;verticalAlign=middle;whiteSpace=wrap;rounded=0;" vertex="1" parent="1">
          <mxGeometry x="740" y="540" width="90" height="60" as="geometry" />
        </mxCell>
        <mxCell id="wNirQLLH8MLSw10efOMB-297" style="edgeStyle=orthogonalEdgeStyle;rounded=0;orthogonalLoop=1;jettySize=auto;html=1;exitX=1;exitY=0.5;exitDx=0;exitDy=0;entryX=0;entryY=0.5;entryDx=0;entryDy=0;shadow=0;" edge="1" parent="1" source="wNirQLLH8MLSw10efOMB-278" target="wNirQLLH8MLSw10efOMB-244">
          <mxGeometry relative="1" as="geometry" />
        </mxCell>
        <mxCell id="wNirQLLH8MLSw10efOMB-278" value="Map&lt;br&gt;- Habitat" style="text;html=1;strokeColor=#D79B00;fillColor=#FFE6CC;align=center;verticalAlign=middle;whiteSpace=wrap;rounded=0;" vertex="1" parent="1">
          <mxGeometry x="740" y="630" width="90" height="60" as="geometry" />
        </mxCell>
        <mxCell id="wNirQLLH8MLSw10efOMB-284" value="Use Support" style="text;html=1;strokeColor=#666666;fillColor=#FFFFFF;align=center;verticalAlign=middle;whiteSpace=wrap;rounded=0;fontColor=#333333;" vertex="1" parent="1">
          <mxGeometry x="870" y="280" width="90" height="20" as="geometry" />
        </mxCell>
        <mxCell id="wNirQLLH8MLSw10efOMB-285" value="Distribution" style="text;html=1;strokeColor=#666666;fillColor=#FFFFFF;align=center;verticalAlign=middle;whiteSpace=wrap;rounded=0;fontColor=#333333;" vertex="1" parent="1">
          <mxGeometry x="1000.0000000000002" y="280" width="90" height="20" as="geometry" />
        </mxCell>
        <mxCell id="wNirQLLH8MLSw10efOMB-294" style="edgeStyle=orthogonalEdgeStyle;rounded=0;orthogonalLoop=1;jettySize=auto;html=1;exitX=1;exitY=0.5;exitDx=0;exitDy=0;entryX=0;entryY=0.5;entryDx=0;entryDy=0;shadow=0;" edge="1" parent="1" source="wNirQLLH8MLSw10efOMB-291" target="wNirQLLH8MLSw10efOMB-177">
          <mxGeometry relative="1" as="geometry" />
        </mxCell>
        <mxCell id="wNirQLLH8MLSw10efOMB-296" style="edgeStyle=orthogonalEdgeStyle;rounded=0;orthogonalLoop=1;jettySize=auto;html=1;exitX=1;exitY=0.5;exitDx=0;exitDy=0;entryX=0;entryY=0.5;entryDx=0;entryDy=0;shadow=0;dashed=1" edge="1" parent="1" source="wNirQLLH8MLSw10efOMB-291" target="wNirQLLH8MLSw10efOMB-221">
          <mxGeometry relative="1" as="geometry" />
        </mxCell>
        <mxCell id="wNirQLLH8MLSw10efOMB-291" value="Open Data Agreement" style="text;html=1;strokeColor=#9673A6;fillColor=#E1D5E7;align=center;verticalAlign=middle;whiteSpace=wrap;rounded=0;" vertex="1" parent="1">
          <mxGeometry x="200.97000000000003" y="360" width="90" height="70" as="geometry" />
        </mxCell>
      </root>
    </mxGraphModel>
  </diagram>
</mxfile>
